<svg xmlns="http://www.w3.org/2000/svg" viewBox="69.74739837646484 194.10952758789062 17.878005981445312 17.878997802734375">
<path d="M78.6864 211.4885 C83.3474 211.4885 87.1254 207.7105 87.1254 203.0495 C87.1254 198.3885 83.3474 194.6095 78.6864 194.6095 C74.0254 194.6095 70.2474 198.3885 70.2474 203.0495 C70.2474 207.7105 74.0254 211.4885 78.6864 211.4885" fill="#817C7A"/>
<path d="M80.3453 195.5530 C80.2023 195.5530 80.0863 195.6690 80.0863 195.8120 L80.0863 197.7950 L80.0863 197.8160 C80.0863 198.4960 79.5933 199.0630 78.9453 199.1780 L78.9453 198.2540 C78.9453 198.1110 78.8293 197.9950 78.6863 197.9950 C78.5433 197.9950 78.4273 198.1110 78.4273 198.2540 L78.4273 199.1780 C77.7803 199.0630 77.2863 198.4960 77.2863 197.8160 L77.2863 197.7950 L77.2863 195.8120 C77.2863 195.6690 77.1703 195.5530 77.0273 195.5530 C76.8843 195.5530 76.7683 195.6690 76.7683 195.8120 L76.7683 197.7950 L76.7683 197.8160 L76.7683 199.7770 L76.7683 199.7990 L76.7683 201.7600 L76.7683 201.7810 L76.7683 203.7430 L76.7683 203.7640 L76.7683 205.7470 C76.7683 206.7130 77.4933 207.5130 78.4273 207.6320 L78.4273 210.2860 C78.4273 210.4290 78.5433 210.5450 78.6863 210.5450 C78.8293 210.5450 78.9453 210.4290 78.9453 210.2860 L78.9453 207.6320 C79.8793 207.5130 80.6043 206.7130 80.6043 205.7470 L80.6043 203.7640 L80.6043 203.7430 L80.6043 201.7810 L80.6043 201.7600 L80.6043 199.7990 L80.6043 199.7770 L80.6043 197.8160 L80.6043 197.7950 L80.6043 195.8120 C80.6043 195.6690 80.4883 195.5530 80.3453 195.5530 M78.4273 199.7010 L78.4273 201.1600 C77.7803 201.0450 77.2863 200.4790 77.2863 199.7990 L77.2863 199.7770 L77.2863 199.1180 C77.5813 199.4310 77.9803 199.6440 78.4273 199.7010 M78.4273 201.6840 L78.4273 203.1430 C77.7803 203.0280 77.2863 202.4620 77.2863 201.7810 L77.2863 201.7600 L77.2863 201.1010 C77.5813 201.4140 77.9803 201.6270 78.4273 201.6840 M78.4273 203.6670 L78.4273 205.1260 C77.7803 205.0110 77.2863 204.4440 77.2863 203.7640 L77.2863 203.7430 L77.2863 203.0840 C77.5813 203.3960 77.9803 203.6090 78.4273 203.6670 M77.2863 205.7470 L77.2863 205.0660 C77.5813 205.3790 77.9803 205.5920 78.4273 205.6490 L78.4273 207.1090 C77.7803 206.9940 77.2863 206.4270 77.2863 205.7470 M80.0863 205.7470 C80.0863 206.4270 79.5933 206.9940 78.9453 207.1090 L78.9453 205.6490 C79.3923 205.5920 79.7913 205.3790 80.0863 205.0660 L80.0863 205.7470 M80.0863 203.7430 L80.0863 203.7640 C80.0863 204.4440 79.5933 205.0110 78.9453 205.1260 L78.9453 203.6670 C79.3923 203.6090 79.7913 203.3960 80.0863 203.0840 L80.0863 203.7430 M80.0863 201.7600 L80.0863 201.7810 C80.0863 202.4620 79.5933 203.0280 78.9453 203.1430 L78.9453 201.6840 C79.3923 201.6270 79.7913 201.4140 80.0863 201.1010 L80.0863 201.7600 M80.0863 199.7770 L80.0863 199.7990 C80.0863 200.4790 79.5933 201.0450 78.9453 201.1600 L78.9453 199.7010 C79.3923 199.6440 79.7913 199.4310 80.0863 199.1180 L80.0863 199.7770" fill="#FFFFFF"/>
</svg>