<svg xmlns="http://www.w3.org/2000/svg" viewBox="126.5093002319336 371.09271240234375 17.87799835205078 17.878997802734375">
<path d="M135.4483 388.4717 C140.1093 388.4717 143.8873 384.6937 143.8873 380.0327 C143.8873 375.3717 140.1093 371.5927 135.4483 371.5927 C130.7873 371.5927 127.0093 375.3717 127.0093 380.0327 C127.0093 384.6937 130.7873 388.4717 135.4483 388.4717" fill="#817C7A"/>
<path d="M141.4554 382.6767 C141.4394 382.1767 141.2604 381.7047 140.9454 381.3237 C141.0934 381.1467 141.2124 380.9477 141.2994 380.7297 L141.3144 380.6937 C141.7754 379.5467 141.2174 378.2387 140.0704 377.7767 L138.8054 377.2687 C138.2484 377.0437 137.6264 377.0557 137.0824 377.2897 C136.8514 376.7437 136.4104 376.3057 135.8534 376.0807 L133.0604 374.9577 C132.5044 374.7347 131.8954 374.7407 131.3444 374.9757 C130.7934 375.2107 130.3674 375.6457 130.1434 376.2017 L130.1294 376.2377 C129.6684 377.3847 130.2254 378.6937 131.3724 379.1547 L134.1654 380.2777 C134.7234 380.5017 135.3454 380.4907 135.8894 380.2567 C135.9404 380.3787 136.0034 380.4957 136.0754 380.6067 C135.4974 380.6407 134.9564 380.8967 134.5664 381.3157 C134.1364 380.9067 133.5644 380.6847 132.9544 380.7037 L131.5914 380.7477 C130.3554 380.7867 129.3824 381.8237 129.4214 383.0597 L129.4224 383.0987 C129.4414 383.6847 129.6834 384.2317 130.1054 384.6397 C130.5254 385.0457 131.0784 385.2697 131.6624 385.2697 C131.6864 385.2697 131.7104 385.2687 131.7354 385.2687 L133.0984 385.2247 C133.6984 385.2057 134.2624 384.9457 134.6664 384.5127 C135.0964 384.9217 135.6684 385.1427 136.2784 385.1237 L139.2874 385.0277 C139.8854 385.0087 140.4414 384.7577 140.8504 384.3217 C141.2604 383.8847 141.4754 383.3147 141.4564 382.7157 L141.4554 382.6767 M135.8994 379.5897 C135.4484 379.8797 134.8814 379.9337 134.3844 379.7337 L131.5914 378.6107 C130.7444 378.2707 130.3324 377.3037 130.6724 376.4567 L130.6874 376.4197 C130.8524 376.0097 131.1674 375.6877 131.5744 375.5147 C131.9814 375.3407 132.4314 375.3367 132.8414 375.5017 L135.6344 376.6247 C136.1324 376.8247 136.5034 377.2557 136.6284 377.7777 C136.6504 377.8707 136.7154 377.9467 136.8034 377.9817 C136.8914 378.0177 136.9914 378.0077 137.0714 377.9567 C137.5234 377.6657 138.0894 377.6117 138.5864 377.8117 L139.8524 378.3207 C140.6994 378.6617 141.1114 379.6277 140.7704 380.4747 L140.7564 380.5117 C140.6954 380.6617 140.6164 380.7987 140.5174 380.9227 C140.5064 380.9157 140.4964 380.9087 140.4854 380.9007 C140.4684 380.8897 140.4514 380.8777 140.4344 380.8667 C140.4214 380.8587 140.4094 380.8507 140.3964 380.8427 C140.3804 380.8327 140.3634 380.8227 140.3474 380.8127 C140.3344 380.8057 140.3224 380.7977 140.3094 380.7907 C140.2894 380.7797 140.2704 380.7697 140.2504 380.7587 C140.2404 380.7537 140.2314 380.7487 140.2214 380.7437 C140.1934 380.7297 140.1644 380.7157 140.1354 380.7027 C140.1244 380.6977 140.1134 380.6937 140.1024 380.6887 C140.0824 380.6797 140.0614 380.6717 140.0414 380.6637 C140.0294 380.6587 140.0174 380.6537 140.0054 380.6497 C139.9844 380.6417 139.9624 380.6337 139.9414 380.6267 C139.9304 380.6227 139.9204 380.6187 139.9104 380.6157 C139.8794 380.6057 139.8474 380.5957 139.8154 380.5877 C139.8094 380.5857 139.8024 380.5837 139.7964 380.5817 C139.7694 380.5747 139.7434 380.5687 139.7174 380.5627 C139.7064 380.5597 139.6954 380.5577 139.6844 380.5557 C139.6614 380.5507 139.6384 380.5457 139.6144 380.5417 C139.6034 380.5397 139.5934 380.5377 139.5824 380.5357 C139.5534 380.5317 139.5244 380.5267 139.4944 380.5237 C139.4904 380.5227 139.4854 380.5217 139.4814 380.5217 C139.4474 380.5177 139.4134 380.5147 139.3794 380.5117 C139.3704 380.5117 139.3604 380.5107 139.3504 380.5107 C139.3254 380.5087 139.3004 380.5077 139.2754 380.5077 C139.2644 380.5067 139.2524 380.5067 139.2414 380.5067 C139.2334 380.5067 139.2244 380.5057 139.2164 380.5057 C139.1924 380.5057 139.1674 380.5067 139.1434 380.5077 L136.8094 380.5817 C136.5814 380.3627 136.4164 380.0777 136.3434 379.7677 C136.3214 379.6757 136.2554 379.5997 136.1674 379.5637 C136.0794 379.5287 135.9794 379.5377 135.8994 379.5897 M140.4234 383.9207 C140.1204 384.2427 139.7104 384.4287 139.2684 384.4427 L136.2594 384.5387 C135.7164 384.5557 135.2134 384.3137 134.8864 383.8817 C134.8284 383.8067 134.7384 383.7637 134.6434 383.7667 C134.5484 383.7697 134.4614 383.8177 134.4084 383.8977 C134.1124 384.3447 133.6154 384.6227 133.0794 384.6397 L131.7164 384.6827 C131.2644 384.6967 130.8354 384.5307 130.5124 384.2177 C130.2014 383.9167 130.0224 383.5127 130.0084 383.0807 L130.0074 383.0407 C129.9784 382.1287 130.6974 381.3617 131.6094 381.3327 L132.9724 381.2897 C132.9904 381.2887 133.0084 381.2887 133.0264 381.2887 C133.5484 381.2887 134.0304 381.5287 134.3464 381.9457 C134.4034 382.0217 134.4944 382.0647 134.5894 382.0617 C134.6844 382.0587 134.7714 382.0097 134.8244 381.9307 C135.1204 381.4827 135.6174 381.2057 136.1534 381.1887 L139.1624 381.0927 C139.1894 381.0917 139.2174 381.0917 139.2444 381.0917 C139.2614 381.0927 139.2774 381.0937 139.2934 381.0937 C139.3044 381.0947 139.3154 381.0947 139.3274 381.0957 C139.3454 381.0967 139.3634 381.0987 139.3824 381.1007 C139.3904 381.1017 139.3994 381.1017 139.4084 381.1027 C139.4274 381.1057 139.4464 381.1087 139.4664 381.1107 C139.4734 381.1127 139.4814 381.1127 139.4894 381.1147 C139.5084 381.1177 139.5284 381.1217 139.5474 381.1257 C139.5544 381.1267 139.5614 381.1277 139.5684 381.1297 C139.5884 381.1337 139.6074 381.1387 139.6274 381.1437 C139.6334 381.1457 139.6404 381.1467 139.6474 381.1487 C139.6664 381.1537 139.6854 381.1597 139.7054 381.1657 C139.7114 381.1677 139.7184 381.1697 139.7244 381.1717 C139.7434 381.1777 139.7624 381.1847 139.7814 381.1917 C139.7884 381.1937 139.7944 381.1957 139.8014 381.1987 C139.8194 381.2057 139.8384 381.2127 139.8564 381.2207 C139.8624 381.2237 139.8694 381.2257 139.8754 381.2287 C139.8944 381.2367 139.9114 381.2457 139.9294 381.2537 C139.9364 381.2567 139.9424 381.2597 139.9494 381.2627 C139.9664 381.2717 139.9844 381.2807 140.0014 381.2907 C140.0074 381.2937 140.0144 381.2977 140.0214 381.3007 C140.0374 381.3107 140.0544 381.3207 140.0714 381.3307 C140.0774 381.3347 140.0844 381.3387 140.0914 381.3427 C140.1074 381.3527 140.1234 381.3637 140.1384 381.3737 C140.1454 381.3787 140.1524 381.3827 140.1594 381.3877 C140.1744 381.3987 140.1894 381.4097 140.2044 381.4207 C140.2114 381.4257 140.2184 381.4307 140.2254 381.4367 C140.2404 381.4477 140.2544 381.4597 140.2684 381.4707 C140.2754 381.4767 140.2824 381.4827 140.2904 381.4887 C140.3034 381.5007 140.3164 381.5127 140.3294 381.5247 C140.3414 381.5357 140.3544 381.5457 140.3664 381.5577 C140.6774 381.8587 140.8564 382.2627 140.8694 382.6957 L140.8714 382.7347 C140.8854 383.1767 140.7264 383.5977 140.4234 383.9207" fill="#FFFFFF"/>
<path d="M135.5484 376.8389 L132.7554 375.7159 C132.0264 375.4229 131.1944 375.7769 130.9014 376.5059 L130.8874 376.5429 C130.8264 376.6929 130.8994 376.8639 131.0494 376.9239 C131.1994 376.9839 131.3704 376.9119 131.4304 376.7609 L131.4454 376.7249 C131.6174 376.2959 132.1074 376.0869 132.5374 376.2589 L135.3294 377.3829 C135.3654 377.3969 135.4024 377.4039 135.4394 377.4039 C135.5554 377.4039 135.6654 377.3339 135.7104 377.2199 C135.7714 377.0699 135.6984 376.8989 135.5484 376.8389" fill="#FFFFFF"/>
<path d="M140.1894 381.7092 C139.9114 381.4482 139.5494 381.3122 139.1694 381.3232 L136.1604 381.4192 C135.9984 381.4242 135.8724 381.5602 135.8774 381.7212 C135.8824 381.8832 136.0174 382.0102 136.1794 382.0052 L139.1884 381.9092 C139.4114 381.9022 139.6244 381.9832 139.7884 382.1362 C139.9524 382.2902 140.0464 382.4982 140.0534 382.7212 L140.0544 382.7612 C140.0594 382.9192 140.1894 383.0442 140.3474 383.0442 C140.3504 383.0442 140.3534 383.0442 140.3564 383.0442 C140.5184 383.0392 140.6454 382.9042 140.6404 382.7422 L140.6394 382.7032 C140.6274 382.3232 140.4674 381.9702 140.1894 381.7092" fill="#FFFFFF"/>
</svg>