<svg xmlns="http://www.w3.org/2000/svg" viewBox="107.58869934082031 194.10952758789062 17.878005981445312 17.878997802734375">
<path d="M116.5277 211.4885 C121.1887 211.4885 124.9667 207.7105 124.9667 203.0495 C124.9667 198.3885 121.1887 194.6095 116.5277 194.6095 C111.8667 194.6095 108.0887 198.3885 108.0887 203.0495 C108.0887 207.7105 111.8667 211.4885 116.5277 211.4885" fill="#817C7A"/>
<path d="M119.9313 199.3027 C119.4923 198.6447 118.9873 198.1227 118.4313 197.7507 C117.8223 197.3437 117.1823 197.1377 116.5273 197.1377 C115.8733 197.1377 115.2323 197.3437 114.6243 197.7507 C114.0673 198.1227 113.5633 198.6447 113.1243 199.3027 C112.2623 200.5947 111.7683 202.2427 111.7683 203.8237 C111.7683 205.3767 112.2493 206.6877 113.1603 207.6147 C114.0123 208.4827 115.2083 208.9607 116.5273 208.9607 C117.8473 208.9607 119.0433 208.4827 119.8953 207.6147 C120.8063 206.6877 121.2873 205.3767 121.2873 203.8237 C121.2873 202.2427 120.7933 200.5947 119.9313 199.3027 M119.4603 207.1877 C118.7233 207.9387 117.6823 208.3517 116.5273 208.3517 C115.3733 208.3517 114.3313 207.9387 113.5943 207.1877 C112.7983 206.3767 112.3773 205.2137 112.3773 203.8237 C112.3773 202.3597 112.8343 200.8347 113.6303 199.6407 C114.4453 198.4197 115.4743 197.7467 116.5273 197.7467 C117.5813 197.7467 118.6093 198.4197 119.4243 199.6407 C120.2213 200.8347 120.6783 202.3597 120.6783 203.8237 C120.6783 205.2137 120.2573 206.3767 119.4603 207.1877" fill="#FFFFFF"/>
<path d="M116.5277 198.1625 C115.6307 198.1625 114.7017 198.7855 113.9767 199.8715 C113.8837 200.0115 113.9207 200.2005 114.0607 200.2935 C114.1127 200.3285 114.1717 200.3455 114.2297 200.3455 C114.3277 200.3455 114.4247 200.2975 114.4837 200.2095 C115.0927 199.2955 115.8387 198.7715 116.5277 198.7715 C116.6957 198.7715 116.8327 198.6355 116.8327 198.4675 C116.8327 198.2985 116.6957 198.1625 116.5277 198.1625" fill="#FFFFFF"/>
</svg>