<svg xmlns="http://www.w3.org/2000/svg" viewBox="71.39599609375 90.51612854003906 14.584999084472656 21.340003967285156">
<path d="M85.3360 97.8591 C85.2520 97.7311 85.1440 97.6651 85.0260 97.6251 L84.9780 97.6181 L85.0140 97.1891 L85.0230 97.1901 C85.0240 97.1851 85.0240 97.1791 85.0250 97.1741 L85.0140 97.1821 L85.0290 96.9981 C85.1050 96.9651 85.1650 96.9381 85.1930 96.9251 C85.3080 96.8711 85.2470 96.7681 85.2470 96.7681 C85.2470 96.7681 85.3340 96.7051 85.3390 96.6281 C85.3440 96.5521 85.2320 96.5241 85.2770 96.4951 C85.3210 96.4661 85.3510 96.4151 85.3360 96.3681 C85.3220 96.3201 85.2430 96.2811 85.2430 96.2811 C85.2430 96.2811 85.2050 96.2551 85.2330 96.2461 C85.2790 96.2311 85.4010 96.1631 85.3960 96.0911 C85.3890 95.9821 85.2670 95.9291 85.2670 95.9291 C85.2440 95.9151 85.1500 95.9281 85.1500 95.9281 C85.1730 95.8781 85.2040 95.8231 85.2460 95.7691 C85.2460 95.7691 85.3730 95.5851 85.3970 95.4971 C85.4150 95.4301 85.4370 95.1861 85.3160 95.0711 C85.3110 95.0661 85.3050 95.0611 85.2990 95.0571 C85.2980 95.0561 85.2970 95.0551 85.2960 95.0541 C85.2190 94.9931 85.0940 94.9691 84.9870 94.9691 C84.8210 94.9691 84.6850 95.1061 84.6850 95.2751 C84.6850 95.4351 84.8050 95.5661 84.9590 95.5811 C84.9550 95.6441 84.8800 95.7331 84.8340 95.8121 C84.7970 95.8761 84.7890 95.9331 84.7600 95.9941 L84.7560 95.9961 L84.4890 96.1821 L84.0950 96.5881 C84.0950 96.5881 84.0030 96.6761 83.8730 96.7691 L83.7650 96.8031 C83.7160 96.7341 83.6430 96.6901 83.5610 96.6901 C83.5070 96.6901 83.4560 96.7091 83.4140 96.7421 C83.3710 96.6411 83.2820 96.5711 83.1780 96.5711 C83.0340 96.5711 82.9170 96.7081 82.9150 96.8781 L82.1680 97.1851 C82.1110 96.7221 81.8850 96.1691 81.6590 95.7651 C81.6060 95.6711 81.5560 95.5901 81.5060 95.5191 C81.7650 95.7241 81.9530 96.0851 81.9720 96.1001 C81.9970 96.1191 82.0510 96.1191 82.0510 96.1191 C82.0510 96.1191 82.1200 96.1001 82.1640 96.0701 C82.2080 96.0411 82.1840 96.0061 82.1840 96.0061 C81.7700 95.3311 81.2220 95.1621 81.0730 95.1271 C80.9970 95.0961 80.9240 95.0841 80.8530 95.0841 C80.8520 95.0841 80.8510 95.0851 80.8490 95.0851 C80.8470 95.0851 80.8450 95.0841 80.8420 95.0841 C80.6370 95.0841 80.5770 95.2731 80.5640 95.3231 L80.4870 95.2051 C80.5860 95.1281 80.6490 95.0091 80.6490 94.8741 C80.6490 94.8051 80.6320 94.7401 80.6030 94.6831 C80.5740 94.6221 80.5320 94.5691 80.4790 94.5291 C80.4880 94.4941 80.4930 94.4591 80.4930 94.4211 C80.4930 94.3461 80.4730 94.2761 80.4390 94.2151 C80.4380 94.2141 80.4380 94.2131 80.4370 94.2111 C80.5000 94.1381 80.5380 94.0431 80.5380 93.9391 C80.5380 93.8631 80.5170 93.7921 80.4820 93.7301 C80.4280 93.6311 80.3360 93.5561 80.2250 93.5251 C80.2350 93.4891 80.2410 93.4511 80.2410 93.4121 C80.2410 93.3331 80.2190 93.2601 80.1810 93.1971 C80.1570 93.1551 80.1270 93.1171 80.0900 93.0861 C80.0960 93.0571 80.1000 93.0271 80.1000 92.9961 C80.1000 92.9091 80.0730 92.8271 80.0270 92.7601 C80.0020 92.7221 79.9710 92.6891 79.9360 92.6611 C79.9710 92.6001 79.9910 92.5301 79.9910 92.4551 C79.9910 92.3541 79.9550 92.2621 79.8960 92.1901 C79.9090 92.1491 79.9160 92.1061 79.9160 92.0611 C79.9160 91.9291 79.8550 91.8121 79.7600 91.7351 C79.7570 91.7321 79.7530 91.7301 79.7500 91.7271 C79.7400 91.7201 79.7310 91.7131 79.7210 91.7071 L79.6970 91.6921 C79.6830 91.6851 79.6700 91.6781 79.6560 91.6721 C79.6560 91.6681 79.6570 91.6641 79.6570 91.6601 C79.6570 91.5421 79.6080 91.4361 79.5300 91.3601 C79.4900 91.2821 79.4270 91.2181 79.3490 91.1771 C79.3380 91.1721 79.3280 91.1661 79.3170 91.1621 C79.2740 91.1261 79.2230 91.0991 79.1680 91.0831 C79.1510 91.0721 79.1340 91.0631 79.1160 91.0541 C79.0820 91.0391 79.0460 91.0281 79.0090 91.0221 C79.0050 91.0211 79.0010 91.0201 78.9960 91.0201 C78.9780 91.0171 78.9600 91.0161 78.9410 91.0161 C78.9260 91.0161 78.9100 91.0171 78.8950 91.0181 C78.8910 91.0191 78.8870 91.0201 78.8820 91.0201 C78.8720 91.0221 78.8610 91.0231 78.8510 91.0261 C78.8460 91.0271 78.8420 91.0281 78.8370 91.0291 C78.8270 91.0321 78.8170 91.0351 78.8080 91.0381 C78.8040 91.0391 78.8000 91.0411 78.7960 91.0421 C78.7850 91.0461 78.7750 91.0501 78.7660 91.0551 C78.7630 91.0561 78.7590 91.0581 78.7560 91.0591 C78.7460 91.0641 78.7350 91.0701 78.7250 91.0761 C78.7230 91.0771 78.7210 91.0781 78.7190 91.0801 C78.6820 91.1031 78.6480 91.1321 78.6200 91.1651 C78.5600 91.0941 78.4770 91.0431 78.3820 91.0241 L78.3800 91.0241 C78.3670 91.0221 78.3540 91.0191 78.3410 91.0181 C78.3350 91.0171 78.3280 91.0171 78.3220 91.0171 C78.3140 91.0171 78.3070 91.0161 78.3000 91.0161 L78.2990 91.0161 L78.2970 91.0161 C78.2780 91.0161 78.2580 91.0181 78.2400 91.0201 C78.2390 91.0201 78.2380 91.0201 78.2380 91.0211 C78.1770 91.0291 78.1200 91.0511 78.0700 91.0831 C78.0150 91.0991 77.9640 91.1261 77.9210 91.1621 C77.8290 91.2011 77.7540 91.2711 77.7090 91.3601 C77.6310 91.4361 77.5820 91.5421 77.5820 91.6601 L77.5820 91.6731 C77.4300 91.7361 77.3220 91.8861 77.3220 92.0611 C77.3220 92.1061 77.3290 92.1491 77.3420 92.1901 C77.2830 92.2621 77.2480 92.3541 77.2480 92.4551 C77.2480 92.5301 77.2680 92.6011 77.3030 92.6621 C77.3000 92.6651 77.2980 92.6671 77.2950 92.6701 C77.2910 92.6731 77.2870 92.6761 77.2830 92.6801 C77.2790 92.6831 77.2750 92.6871 77.2710 92.6901 C77.1900 92.7671 77.1380 92.8751 77.1380 92.9961 C77.1380 93.0281 77.1420 93.0581 77.1490 93.0881 C77.1340 93.1001 77.1210 93.1141 77.1080 93.1281 C77.0400 93.2031 76.9970 93.3021 76.9970 93.4121 C76.9970 93.4521 77.0030 93.4901 77.0130 93.5261 C76.9280 93.5501 76.8530 93.6011 76.7990 93.6691 C76.7380 93.7421 76.7000 93.8361 76.7000 93.9391 C76.7000 94.0771 76.7670 94.1981 76.8690 94.2751 C76.8520 94.3211 76.8430 94.3701 76.8430 94.4211 C76.8430 94.4591 76.8480 94.4951 76.8570 94.5301 C76.8190 94.5601 76.7860 94.5961 76.7600 94.6371 C76.7140 94.7041 76.6870 94.7861 76.6870 94.8741 C76.6870 95.0041 76.7450 95.1191 76.8380 95.1961 L76.7460 95.3361 C76.7460 95.3361 76.7020 95.0841 76.4650 95.0841 C76.3970 95.0841 76.3260 95.0961 76.2530 95.1241 C76.1250 95.1521 75.5560 95.3101 75.1300 96.0061 C75.1300 96.0061 75.1050 96.0411 75.1490 96.0701 C75.1940 96.1001 75.2630 96.1191 75.2630 96.1191 C75.2630 96.1191 75.3170 96.1191 75.3420 96.1001 C75.3600 96.0851 75.5540 95.7141 75.8180 95.5111 C75.8180 95.5121 75.8180 95.5121 75.8170 95.5121 C75.7620 95.5891 75.7050 95.6781 75.6460 95.7831 C75.4240 96.1801 75.2030 96.7191 75.1390 97.1771 L74.4120 96.8781 C74.4110 96.7081 74.2930 96.5711 74.1490 96.5711 C74.0450 96.5711 73.9560 96.6411 73.9130 96.7421 C73.8710 96.7091 73.8200 96.6901 73.7660 96.6901 C73.6650 96.6901 73.5780 96.7561 73.5330 96.8541 C73.4590 96.8301 73.4150 96.8151 73.4130 96.8131 L73.4130 96.8151 C73.2610 96.7101 73.0890 96.2531 73.0890 96.2531 C73.0890 96.2531 73.0210 96.0431 72.8470 95.9491 L72.7380 94.8171 C72.7380 94.8171 72.6460 93.9941 72.6240 93.8521 C72.6020 93.7111 72.5450 93.5261 72.5300 93.5011 C72.5150 93.4761 72.4380 93.3301 72.2430 93.3481 C72.2430 93.3481 72.0990 93.3611 72.0460 93.4831 C72.0170 93.5491 71.9900 93.6081 71.9810 93.6741 C71.9760 93.7041 71.9670 93.7801 71.9580 93.8641 C71.9360 94.2131 72.0110 94.4471 72.0810 94.5581 C71.9610 94.9721 72.0950 95.2661 72.1760 95.3941 C72.1270 95.5601 72.1210 95.7061 72.1340 95.8311 C72.1140 95.8351 72.0930 95.8401 72.0740 95.8461 C72.0340 95.8641 71.9510 95.9071 71.9270 95.9631 C71.8960 96.0341 71.9060 96.0991 71.9660 96.1491 C71.9730 96.1551 71.9890 96.1671 72.0050 96.1791 C71.9910 96.1931 71.9810 96.2131 71.9810 96.2131 C71.9810 96.2131 71.9360 96.3021 71.9850 96.3661 C71.9860 96.3671 71.9870 96.3681 71.9870 96.3681 C71.9770 96.3801 71.9710 96.3911 71.9710 96.3911 C71.9710 96.3911 71.9260 96.4801 71.9760 96.5451 C71.9930 96.5681 72.0210 96.5951 72.0540 96.6221 C72.0480 96.6311 72.0450 96.6391 72.0450 96.6391 C72.0450 96.6391 72.0000 96.7281 72.0500 96.7921 C72.0810 96.8331 72.1420 96.8871 72.2060 96.9251 C72.2060 96.9251 72.2530 96.9591 72.3190 96.9831 C72.3350 97.0151 72.3510 97.0431 72.3650 97.0661 C72.2450 97.4811 72.3790 97.7751 72.4600 97.9021 C72.3400 98.3171 72.4740 98.6111 72.5550 98.7381 C72.4350 99.1531 72.5690 99.4471 72.6500 99.5751 C72.5300 99.9891 72.6640 100.2841 72.7450 100.4111 C72.6240 100.8251 72.7590 101.1201 72.8390 101.2471 C72.7190 101.6621 72.8540 101.9561 72.9340 102.0831 C72.8140 102.4981 72.9490 102.7921 73.0290 102.9191 C72.9090 103.3341 73.0430 103.6281 73.1240 103.7551 C73.0040 104.1701 73.1380 104.4641 73.2190 104.5921 C73.0990 105.0061 73.2330 105.3011 73.3140 105.4281 C73.1940 105.8421 73.3280 106.1371 73.4090 106.2641 C73.2640 106.7521 73.5320 107.0711 73.5320 107.0711 C73.5320 107.0711 73.4950 107.2521 73.5020 107.4661 C73.5130 107.5141 73.5200 107.5491 73.5240 107.5651 C73.5520 107.6741 73.6190 107.9411 73.6730 108.0101 C73.7270 108.0791 73.7470 108.2181 73.9700 108.1881 C74.1930 108.1591 74.1180 107.7871 74.1180 107.7871 L73.7030 103.6161 L73.2280 99.5041 L73.0150 97.4761 C73.1030 97.5071 73.2600 97.5651 73.4520 97.6501 C73.4330 97.6941 73.4220 97.7431 73.4220 97.7951 C73.4220 97.9331 73.4980 98.0501 73.6030 98.0901 C73.5960 98.1191 73.5920 98.1501 73.5920 98.1821 C73.5920 98.3531 73.7100 98.4921 73.8550 98.4921 C73.9400 98.4921 74.0160 98.4451 74.0640 98.3711 L74.3800 99.4761 C74.3800 99.4761 74.5730 100.0081 74.7200 100.1121 C74.9350 100.2621 75.9380 100.3561 76.1010 100.3781 C76.1150 100.3801 76.1360 100.3831 76.1630 100.3861 C76.1630 100.3871 76.1620 100.3881 76.1610 100.3891 L76.4360 100.4031 C76.4360 100.4031 75.8150 101.0041 75.7060 101.2501 L75.9790 101.4161 C75.9790 101.4161 75.8420 101.7991 75.7440 102.0861 C75.6670 102.1091 75.6660 102.1091 75.6660 102.1091 C75.6660 102.1091 75.4540 101.9731 75.4160 101.9581 C75.3780 101.9421 75.2190 101.8131 75.1430 101.8891 C75.0670 101.9651 75.0140 102.3901 75.0520 102.4811 C75.0900 102.5721 75.2790 102.5871 75.3550 102.5491 C75.4310 102.5111 75.4970 102.4811 75.5360 102.4431 C75.5530 102.4271 75.5680 102.4591 75.5900 102.4971 C75.3400 102.8191 75.0430 103.3621 74.9770 104.1651 C74.9770 104.1651 74.9660 104.2301 75.0490 104.2401 C75.1310 104.2501 75.2410 104.2291 75.2410 104.2291 C75.2410 104.2291 75.3170 104.1911 75.3370 104.1471 C75.3550 104.1071 75.3650 103.2301 75.7170 102.7821 L75.3760 104.9051 L75.3750 104.9031 C75.3470 105.0601 75.2860 105.3301 75.1790 105.4421 C75.0240 105.6051 75.1860 105.8121 75.1860 105.8121 C75.1860 105.8121 75.3340 105.9531 75.4670 105.9601 C75.5140 105.9631 75.5720 105.9491 75.6310 105.9251 C75.6560 105.9161 75.6780 105.9041 75.6970 105.8921 C75.7510 105.8611 75.8020 105.8211 75.8420 105.7751 C75.8690 105.8261 75.9180 105.8621 75.9780 105.8711 C76.0170 105.9651 76.1100 106.0311 76.2190 106.0311 C76.2760 106.0311 76.3280 106.0131 76.3710 105.9821 C76.4090 106.0041 76.4530 106.0171 76.5000 106.0171 C76.5260 106.0171 76.5510 106.0131 76.5750 106.0051 C76.6210 106.0831 76.7040 106.1351 76.8000 106.1351 C76.8540 106.1351 76.9030 106.1191 76.9440 106.0911 C76.9920 106.1571 77.0690 106.1991 77.1550 106.1991 C77.2480 106.1991 77.3290 106.1511 77.3750 106.0781 C77.3870 106.0901 77.4000 106.1001 77.4130 106.1091 L77.5910 107.0961 L77.8060 108.2091 L77.8810 108.5951 C77.8810 108.5951 77.8990 108.7361 77.9180 108.8181 C77.9260 108.8561 77.9160 108.8811 77.8980 108.8911 C77.8650 108.9081 77.8420 108.8661 77.8420 108.8661 C77.8420 108.8661 77.7220 108.5261 77.7020 108.4841 C77.6690 108.4111 77.5130 108.4581 77.5320 108.5431 C77.5500 108.6291 77.5990 108.7881 77.6060 108.8331 C77.6130 108.8771 77.6580 109.1721 77.6580 109.2481 C77.6580 109.3251 77.6410 109.4051 77.6060 109.4491 C77.5710 109.4921 77.3540 109.7381 77.1980 109.7831 C77.0420 109.8271 76.7080 109.9311 76.7080 109.9311 C76.7080 109.9311 76.6110 109.9571 76.5740 110.0201 C76.5370 110.0831 76.5570 110.1741 76.5820 110.2131 C76.6060 110.2531 76.8190 110.2941 76.9010 110.3021 C76.9750 110.3101 77.2370 110.3391 77.4430 110.3101 C77.4960 110.3021 77.7400 110.2751 77.8660 110.2281 C77.9560 110.1941 78.1070 110.0801 78.1860 110.0171 C78.1940 110.0121 78.2140 109.9991 78.2280 110.0071 C78.2390 110.0141 78.2450 110.0341 78.2480 110.0471 L78.3010 110.3911 C78.2980 110.4531 78.4520 110.3821 78.4720 110.4081 C78.4920 110.4341 78.5760 110.6921 78.6080 110.7701 C78.6400 110.8481 78.8310 111.0301 78.8310 111.0301 L79.0090 111.2671 C79.0090 111.2671 79.0790 111.3561 79.2030 111.3251 C79.4730 111.2591 79.5820 111.1961 79.5820 111.1961 C79.5820 111.1961 79.6470 111.1751 79.6180 111.0221 C79.5970 110.9191 79.4390 110.4731 79.4390 110.4731 L79.1130 109.7311 C79.1130 109.7311 79.0140 109.4541 78.9940 109.3151 C78.9740 109.1771 78.9170 109.1091 79.1280 108.7141 C79.1870 108.6031 79.1130 108.5881 79.1130 108.5881 L78.9790 108.5651 C78.9790 108.5651 79.1280 107.6821 79.1650 107.5491 C79.1990 107.4251 79.4120 106.7591 79.4550 106.3431 C79.5580 106.3421 79.6500 106.2921 79.7060 106.2141 C79.7560 106.2471 79.8160 106.2661 79.8800 106.2661 C79.9960 106.2661 80.0970 106.2031 80.1510 106.1101 C80.1800 106.1191 80.2110 106.1241 80.2420 106.1241 C80.2990 106.1241 80.3520 106.1081 80.3980 106.0821 C80.4490 106.1191 80.5120 106.1411 80.5810 106.1411 C80.7110 106.1411 80.8230 106.0621 80.8710 105.9481 C80.9260 105.9401 80.9740 105.9121 81.0090 105.8711 C81.0970 105.9301 81.1990 105.9641 81.2720 105.9601 C81.3760 105.9541 81.4880 105.8681 81.5330 105.8301 C81.5600 105.8531 81.5900 105.8741 81.6210 105.8921 C81.6400 105.9041 81.6620 105.9161 81.6880 105.9251 C81.7460 105.9491 81.8050 105.9631 81.8510 105.9601 C81.9840 105.9531 82.1320 105.8121 82.1320 105.8121 C82.1320 105.8121 82.2950 105.6051 82.1400 105.4421 C82.0280 105.3251 81.9660 105.0371 81.9400 104.8841 L81.9370 104.8881 L81.8130 104.1081 C81.8290 104.1111 81.8370 104.1061 81.8340 104.0871 C81.8220 104.0121 81.7850 103.8571 81.7510 103.7171 L81.5910 102.7141 C82.0010 103.1351 82.0110 104.1051 82.0300 104.1471 C82.0500 104.1921 82.1260 104.2301 82.1260 104.2301 C82.1260 104.2301 82.2360 104.2511 82.3180 104.2411 C82.4010 104.2311 82.3910 104.1651 82.3910 104.1651 C82.3240 103.3591 82.0240 102.8151 81.7730 102.4921 C81.7940 102.4571 81.8090 102.4281 81.8250 102.4431 C81.8640 102.4811 81.9300 102.5111 82.0060 102.5491 C82.0810 102.5871 82.2710 102.5721 82.3090 102.4811 C82.3460 102.3901 82.2940 101.9651 82.2180 101.8891 C82.1420 101.8131 81.9830 101.9421 81.9450 101.9581 C81.9070 101.9731 81.6940 102.1091 81.6940 102.1091 L81.5690 102.0721 L81.5690 102.0701 C81.5670 102.0651 81.5650 102.0601 81.5640 102.0551 C81.5600 102.0451 81.5570 102.0351 81.5530 102.0241 C81.5520 102.0211 81.5510 102.0181 81.5500 102.0151 C81.5460 102.0031 81.5420 101.9901 81.5370 101.9781 C81.5370 101.9771 81.5360 101.9761 81.5360 101.9741 C81.5310 101.9611 81.5270 101.9471 81.5220 101.9341 C81.5220 101.9321 81.5210 101.9311 81.5210 101.9301 C81.5160 101.9161 81.5110 101.9021 81.5060 101.8881 C81.5060 101.8881 81.5060 101.8871 81.5050 101.8861 C81.4950 101.8561 81.4850 101.8271 81.4750 101.7981 C81.4740 101.7971 81.4740 101.7961 81.4740 101.7961 C81.4690 101.7821 81.4650 101.7691 81.4600 101.7561 C81.4590 101.7541 81.4590 101.7531 81.4580 101.7511 C81.4490 101.7241 81.4400 101.6981 81.4310 101.6721 C81.4300 101.6721 81.4300 101.6721 81.4300 101.6711 C81.3790 101.5251 81.3400 101.4161 81.3400 101.4161 L81.6120 101.2501 C81.6070 101.2401 81.6010 101.2281 81.5950 101.2161 C81.5930 101.2131 81.5920 101.2111 81.5900 101.2081 C81.5840 101.1961 81.5760 101.1831 81.5670 101.1701 C81.5670 101.1691 81.5660 101.1681 81.5660 101.1671 C81.5570 101.1541 81.5480 101.1401 81.5380 101.1261 C81.5360 101.1241 81.5350 101.1231 81.5340 101.1211 C81.4770 101.0411 81.4010 100.9491 81.3200 100.8581 C81.1150 100.6271 80.8830 100.4031 80.8830 100.4031 L81.1490 100.3781 L81.1850 100.3841 C81.2020 100.3811 81.2160 100.3791 81.2270 100.3781 L81.3260 100.3781 C81.3260 100.3781 82.2060 100.4001 82.3690 100.3781 C82.5310 100.3561 82.6640 100.3111 82.8350 100.1121 C82.9200 100.0111 83.0400 99.3951 83.1380 98.8071 L83.2410 98.4491 C83.2810 98.4761 83.3270 98.4921 83.3760 98.4921 C83.5210 98.4921 83.6390 98.3531 83.6390 98.1821 C83.6390 98.1501 83.6350 98.1191 83.6280 98.0901 C83.7330 98.0501 83.8090 97.9331 83.8090 97.7951 C83.8090 97.7381 83.7960 97.6841 83.7730 97.6381 L84.1430 97.4251 C84.2940 97.3491 84.4410 97.2791 84.5430 97.2311 L84.4540 97.5921 L84.3780 97.5811 C84.3700 97.5951 84.3550 97.5851 84.3440 97.5891 C84.3390 97.5911 84.3330 97.5921 84.3280 97.5921 C84.2170 97.6081 84.1110 97.6561 84.0130 97.7531 C83.9240 97.8411 83.8590 97.9571 83.8150 98.1011 C83.7830 98.2061 83.7660 98.3161 83.7600 98.4281 C83.7570 98.4951 83.7540 98.5611 83.7640 98.6261 C83.7720 98.6821 83.7750 98.7401 83.7730 98.7991 C83.7710 98.8611 83.7580 98.9081 83.7250 98.9571 C83.7210 98.9621 83.7090 98.9781 83.7110 98.9871 C83.7140 98.9941 83.7300 98.9921 83.7350 98.9921 C83.8150 98.9911 83.9180 99.0681 83.9360 99.1601 C83.9520 99.2451 83.9510 99.3341 83.9400 99.4231 C83.9220 99.5821 83.8840 99.7291 83.8080 99.8551 C83.7540 99.9451 83.6210 99.9711 83.5540 99.9281 C83.5390 99.9181 83.5100 99.9381 83.5150 99.9541 C83.5450 100.0531 83.5050 100.1721 83.4630 100.2751 C83.4470 100.3131 83.4260 100.3471 83.4090 100.3841 C83.3580 100.4941 83.3200 100.6121 83.2980 100.7411 C83.2840 100.8281 83.2770 100.9151 83.2800 101.0021 C83.2820 101.0631 83.2850 101.1261 83.3000 101.1841 C83.3080 101.2181 83.3140 101.2541 83.3240 101.2881 C83.3890 101.5101 83.5010 101.6561 83.6540 101.7371 C83.7010 101.7611 83.7490 101.7781 83.7990 101.7891 L83.7990 101.7921 C83.7990 101.7921 83.9750 101.8481 84.1740 101.8491 C84.2650 101.8681 84.3980 101.8871 84.5310 101.8741 C84.5500 101.8741 84.5680 101.8731 84.5870 101.8721 C84.6270 101.8691 84.6660 101.8611 84.7040 101.8501 C84.8780 101.8371 85.0340 101.7501 85.1670 101.5601 C85.2460 101.4481 85.3020 101.3161 85.3360 101.1661 C85.3840 100.9521 85.3810 100.7451 85.3310 100.5461 C85.3220 100.5131 85.3140 100.4791 85.3090 100.4431 C85.2950 100.3361 85.2860 100.2661 85.3310 100.1651 C85.3510 100.1171 85.3260 100.0931 85.3030 100.1011 C85.2240 100.1271 85.1330 100.0831 85.0960 100.0151 C85.0710 99.9691 85.0550 99.9151 85.0450 99.8571 C85.0230 99.7221 85.0130 99.6321 85.0370 99.4931 C85.0500 99.4171 85.0690 99.3431 85.1040 99.2781 C85.1360 99.2191 85.2480 99.1491 85.2990 99.1451 C85.3170 99.1441 85.3260 99.1411 85.3430 99.1421 C85.3790 99.1391 85.3700 99.1171 85.3630 99.1081 C85.3220 99.0501 85.3300 99.0191 85.3460 98.9391 C85.3530 98.9051 85.3620 98.8721 85.3740 98.8401 C85.4150 98.7301 85.4410 98.6141 85.4540 98.4931 C85.4810 98.2461 85.4490 98.0311 85.3360 97.8591" fill="#817C7A"/>
</svg>