<svg xmlns="http://www.w3.org/2000/svg" viewBox="88.66809844970703 194.10952758789062 17.878005981445312 17.878997802734375">
<path d="M97.6071 211.4885 C102.2681 211.4885 106.0461 207.7105 106.0461 203.0495 C106.0461 198.3885 102.2681 194.6095 97.6071 194.6095 C92.9461 194.6095 89.1681 198.3885 89.1681 203.0495 C89.1681 207.7105 92.9461 211.4885 97.6071 211.4885" fill="#817C7A"/>
<path d="M95.5776 199.6279 L95.5906 199.6149 C95.9566 199.2659 96.1656 198.7749 96.1656 198.2699 L96.1656 198.2179 L95.8236 198.2179 C95.6776 198.2179 95.5606 198.0999 95.5606 197.9549 L95.5606 196.8059 C95.5606 196.6609 95.6776 196.5429 95.8236 196.5429 L99.3906 196.5429 C99.5366 196.5429 99.6536 196.6609 99.6536 196.8059 L99.6536 197.9549 C99.6536 198.0999 99.5366 198.2179 99.3906 198.2179 L99.0476 198.2179 L99.0476 198.2699 C99.0476 198.7749 99.2576 199.2659 99.6236 199.6149 L99.6366 199.6279 C100.1056 200.0759 100.3746 200.7059 100.3746 201.3539 L100.3746 208.0179 C100.3746 208.8659 99.6846 209.5549 98.8366 209.5549 L96.3776 209.5549 C95.5296 209.5549 94.8396 208.8659 94.8396 208.0179 L94.8396 201.3539 C94.8396 200.7059 95.1086 200.0759 95.5776 199.6279 M99.1276 197.0699 L96.0866 197.0699 L96.0866 197.6909 L96.4296 197.6909 L98.7846 197.6909 L99.1276 197.6909 L99.1276 197.0699 M99.2726 200.0089 L99.2596 199.9959 C98.7906 199.5479 98.5216 198.9179 98.5216 198.2699 L98.5216 198.2179 L96.6926 198.2179 L96.6926 198.2699 C96.6926 198.9179 96.4236 199.5479 95.9546 199.9959 L95.9416 200.0089 C95.5756 200.3579 95.3666 200.8489 95.3666 201.3539 L95.3666 201.5149 L99.8476 201.5149 L99.8476 201.3539 C99.8476 200.8489 99.6386 200.3579 99.2726 200.0089 M96.3776 209.0289 L98.8366 209.0289 C99.3946 209.0289 99.8476 208.5749 99.8476 208.0179 L99.8476 202.0419 L95.3666 202.0419 L95.3666 208.0179 C95.3666 208.5749 95.8196 209.0289 96.3776 209.0289" fill="#FFFFFF"/>
<path d="M98.8368 208.1901 C98.9318 208.1901 99.0088 208.1131 99.0088 208.0181 L99.0088 204.1041 C99.0088 203.9581 99.1268 203.8401 99.2728 203.8401 C99.4178 203.8401 99.5358 203.9581 99.5358 204.1041 L99.5358 208.0181 C99.5358 208.4031 99.2218 208.7171 98.8368 208.7171 C98.6918 208.7171 98.5738 208.5991 98.5738 208.4531 C98.5738 208.3081 98.6918 208.1901 98.8368 208.1901" fill="#FFFFFF"/>
</svg>