<svg xmlns="http://www.w3.org/2000/svg" viewBox="145.4300079345703 371.09271240234375 17.87799072265625 17.878997802734375">
<path d="M154.3690 388.4717 C159.0300 388.4717 162.8080 384.6937 162.8080 380.0327 C162.8080 375.3717 159.0300 371.5927 154.3690 371.5927 C149.7080 371.5927 145.9300 375.3717 145.9300 380.0327 C145.9300 384.6937 149.7080 388.4717 154.3690 388.4717" fill="#817C7A"/>
<path d="M157.5144 375.2248 C157.3674 374.8598 157.1104 374.5478 156.7834 374.3338 L156.6474 373.7158 C156.6274 373.6268 156.5614 373.5538 156.4734 373.5268 C156.3854 373.4998 156.2894 373.5218 156.2224 373.5848 L155.7714 374.0088 C155.7444 374.0078 155.7184 374.0078 155.6924 374.0078 C154.8414 374.0078 154.1004 374.5538 153.8494 375.3678 L153.5044 376.4838 C153.3474 376.9918 153.4074 377.5338 153.6604 377.9898 C153.1944 378.2238 152.8384 378.6378 152.6814 379.1458 L152.3374 380.2608 C152.1804 380.7688 152.2404 381.3118 152.4934 381.7678 C152.0274 382.0008 151.6714 382.4148 151.5144 382.9228 L151.1694 384.0388 C150.8554 385.0558 151.4264 386.1378 152.4434 386.4528 L152.4754 386.4628 C152.6614 386.5198 152.8534 386.5488 153.0464 386.5488 C153.8974 386.5488 154.6374 386.0018 154.8894 385.1888 L155.2344 384.0728 C155.3914 383.5648 155.3314 383.0218 155.0774 382.5658 C155.5444 382.3328 155.8994 381.9188 156.0564 381.4108 L156.4014 380.2948 C156.5584 379.7868 156.4984 379.2448 156.2454 378.7888 C156.7114 378.5548 157.0674 378.1408 157.2244 377.6328 L157.5684 376.5168 C157.6994 376.0938 157.6804 375.6348 157.5144 375.2248 M157.0804 376.3658 L156.7354 377.4818 C156.5954 377.9358 156.2394 378.2878 155.7834 378.4238 C155.7014 378.4478 155.6374 378.5118 155.6114 378.5928 C155.5864 378.6748 155.6034 378.7628 155.6574 378.8298 C155.9574 379.1988 156.0534 379.6898 155.9124 380.1438 L155.5684 381.2598 C155.4274 381.7138 155.0714 382.0658 154.6154 382.2008 C154.5344 382.2258 154.4694 382.2888 154.4444 382.3708 C154.4194 382.4518 154.4364 382.5408 154.4904 382.6078 C154.7904 382.9768 154.8854 383.4678 154.7454 383.9218 L154.4004 385.0378 C154.2154 385.6358 153.6714 386.0378 153.0464 386.0378 C152.9044 386.0378 152.7634 386.0158 152.6264 385.9738 L152.5944 385.9638 C151.8474 385.7328 151.4274 384.9368 151.6584 384.1898 L152.0024 383.0738 C152.1434 382.6208 152.4994 382.2688 152.9554 382.1328 C153.0374 382.1088 153.1014 382.0448 153.1264 381.9638 C153.1514 381.8818 153.1344 381.7928 153.0804 381.7268 C152.7804 381.3578 152.6854 380.8658 152.8254 380.4118 L153.1704 379.2968 C153.3104 378.8428 153.6664 378.4908 154.1224 378.3548 C154.2044 378.3308 154.2684 378.2668 154.2944 378.1858 C154.3194 378.1038 154.3024 378.0148 154.2484 377.9488 C153.9484 377.5798 153.8524 377.0878 153.9934 376.6348 L154.3374 375.5188 C154.5224 374.9208 155.0674 374.5188 155.6924 374.5188 C155.7414 374.5188 155.7904 374.5218 155.8384 374.5268 C155.9174 374.5348 155.9954 374.5058 156.0494 374.4488 L156.2454 374.2648 L156.2934 374.4858 C156.2934 374.4978 156.2944 374.5088 156.2954 374.5208 C156.3054 374.6018 156.3534 374.6728 156.4234 374.7128 C156.9994 375.0378 157.2764 375.7338 157.0804 376.3658" fill="#FFFFFF"/>
<path d="M156.0518 374.8837 L156.0238 374.8747 C155.9098 374.8397 155.7928 374.8217 155.6748 374.8217 C155.1528 374.8217 154.6978 375.1567 154.5438 375.6557 L154.2408 376.6377 C154.1468 376.9397 154.1778 377.2597 154.3248 377.5387 C154.4728 377.8187 154.7198 378.0237 155.0218 378.1167 L155.0498 378.1257 C155.1628 378.1607 155.2808 378.1787 155.3988 378.1787 C155.9208 378.1787 156.3748 377.8437 156.5288 377.3447 L156.8328 376.3627 C157.0248 375.7397 156.6748 375.0767 156.0518 374.8837 M156.3438 376.2117 L156.0408 377.1937 C155.9548 377.4727 155.6908 377.6677 155.3988 377.6677 C155.3318 377.6677 155.2648 377.6577 155.2008 377.6377 L155.1728 377.6287 C155.0018 377.5757 154.8608 377.4597 154.7768 377.3007 C154.6928 377.1417 154.6758 376.9597 154.7288 376.7887 L155.0328 375.8067 C155.1188 375.5277 155.3828 375.3337 155.6748 375.3337 C155.7418 375.3337 155.8078 375.3437 155.8728 375.3637 L155.9008 375.3717 C156.2548 375.4817 156.4538 375.8587 156.3438 376.2117" fill="#FFFFFF"/>
<path d="M154.8844 378.6614 L154.8564 378.6524 C154.7424 378.6174 154.6254 378.5994 154.5074 378.5994 C153.9854 378.5994 153.5304 378.9344 153.3764 379.4334 L153.0734 380.4154 C152.8804 381.0384 153.2304 381.7024 153.8544 381.8944 L153.8824 381.9034 C153.9954 381.9384 154.1134 381.9564 154.2314 381.9564 C154.7534 381.9564 155.2074 381.6214 155.3614 381.1224 L155.6654 380.1404 C155.7584 379.8394 155.7284 379.5194 155.5804 379.2394 C155.4334 378.9604 155.1854 378.7544 154.8844 378.6614 M155.1764 379.9894 L154.8734 380.9714 C154.7874 381.2504 154.5234 381.4454 154.2314 381.4454 C154.1644 381.4454 154.0974 381.4354 154.0334 381.4154 L154.0044 381.4064 C153.8334 381.3534 153.6934 381.2374 153.6094 381.0784 C153.5254 380.9194 153.5084 380.7374 153.5614 380.5664 L153.8654 379.5844 C153.9514 379.3054 154.2154 379.1114 154.5074 379.1114 C154.5744 379.1114 154.6404 379.1214 154.7054 379.1414 L154.7334 379.1494 C154.9044 379.2024 155.0444 379.3194 155.1284 379.4784 C155.2124 379.6374 155.2294 379.8184 155.1764 379.9894" fill="#FFFFFF"/>
<path d="M153.7169 382.4391 L153.6889 382.4301 C153.5749 382.3951 153.4579 382.3771 153.3399 382.3771 C152.8179 382.3771 152.3629 382.7121 152.2089 383.2111 L151.9059 384.1931 C151.7129 384.8161 152.0629 385.4801 152.6869 385.6721 L152.7149 385.6811 C152.8279 385.7161 152.9459 385.7341 153.0639 385.7341 C153.5859 385.7341 154.0399 385.3991 154.1939 384.9001 L154.4979 383.9181 C154.5909 383.6171 154.5609 383.2971 154.4129 383.0171 C154.2659 382.7381 154.0189 382.5321 153.7169 382.4391 M154.0089 383.7671 L153.7059 384.7491 C153.6199 385.0281 153.3559 385.2231 153.0639 385.2231 C152.9969 385.2231 152.9299 385.2131 152.8659 385.1931 L152.8379 385.1841 C152.4839 385.0751 152.2849 384.6981 152.3939 384.3441 L152.6979 383.3621 C152.7839 383.0831 153.0479 382.8891 153.3399 382.8891 C153.4069 382.8891 153.4729 382.8991 153.5379 382.9191 L153.5659 382.9271 C153.7369 382.9801 153.8769 383.0971 153.9609 383.2561 C154.0449 383.4151 154.0619 383.5961 154.0089 383.7671" fill="#FFFFFF"/>
</svg>